<svg width="683" height="683" viewBox="0 0 683 683" fill="none" xmlns="http://www.w3.org/2000/svg">
<rect x="31" y="43" width="621" height="596" rx="298" fill="#B9B9B9"/>
<rect x="251" y="230" width="185" height="216" rx="92.5" fill="white"/>
<rect x="251" y="419" width="162" height="192" rx="81" fill="white"/>
<rect width="86" height="96" rx="43" transform="matrix(-1 0 0 1 251 515)" fill="white"/>
<rect x="515" y="611" width="174" height="120" rx="60" transform="rotate(180 515 611)" fill="white"/>
<rect x="251" y="443" width="185" height="192" rx="92.5" fill="white"/>
<rect x="332" y="443" width="162" height="192" rx="81" fill="white"/>
<rect x="203" y="443" width="162" height="192" rx="81" fill="white"/>
<path d="M312 18.1333C309.467 18.4 301.067 19.5999 293.333 20.7999C163.6 40.1332 57.2 137.6 26.2667 265.467C19.3333 293.6 18 306.4 18 341.333C18 382.933 21.2 404.4 32.8 440.267C64.9333 539.867 142.8 617.6 242.4 649.867C278.8 661.6 299.733 664.667 342.667 664.533C373.2 664.4 378.667 664.133 396 660.933C464.667 648.667 526 616.267 573.333 567.2C621.6 517.333 650.533 459.067 662.267 388.667C665.6 367.867 665.6 314.8 662.267 294C651.867 232 628.267 179.467 589.6 133.333C540.267 74.2666 472.667 35.3333 396 21.7333C379.733 18.9333 371.867 18.2666 346.667 17.9999C330.133 17.7333 314.533 17.8666 312 18.1333ZM380.667 54.1333C463.6 65.2 538.267 112.8 585.067 184.4C600.933 208.8 615.333 241.867 622.667 271.067C633.467 314.267 634 364 624 406.533C614.533 447.067 594 489.333 568 521.867C558.933 533.333 540.267 553.333 538.667 553.333C538.133 553.333 536.667 550.533 535.333 547.067C525.733 521.333 509.867 497.733 487.467 475.333C462.133 450 439.2 435.733 406.267 424.667C382.933 416.8 363.6 414.267 335.333 415.067C300.8 416.133 277.733 421.733 249.067 436.133C227.6 446.933 213.067 457.467 194.533 476C172.8 497.6 156.933 521.6 147.333 547.067C146 550.533 144.533 553.333 144 553.333C142.267 553.333 122.267 531.6 113.2 520C81.6 479.333 61.4667 432 53.8667 380.533C51.0667 361.2 51.0667 321.6 53.8667 302C68 206.533 125.2 126.267 210.267 82.9333C263.2 55.9999 320.933 46.1333 380.667 54.1333ZM376.133 452C435.867 464.267 485.467 507.467 505.467 565.067C507.733 571.867 509.467 577.6 509.2 577.867C505.333 581.467 483.333 594.267 468.667 601.467C440 615.733 408.267 625.2 375.333 629.467C359.867 631.333 322.8 631.333 307.333 629.467C264.533 623.867 223.2 609.2 187.067 586.667C171.333 576.933 172 579.2 179.6 559.333C188.267 536.267 200.533 517.733 219.867 498.533C261.333 457.6 318.933 440.4 376.133 452Z" fill="#B9B9B9"/>
<path d="M324.416 197.111C311.326 198.919 292.624 205.731 280.201 213.377C266.175 221.996 245.871 242.71 238.257 256.334C225.567 278.855 219.957 302.349 221.159 327.651C223.163 367.41 242.933 403.277 274.591 425.103C321.344 457.077 381.455 451.934 422.731 412.591C451.718 384.926 466.145 340.718 459.332 300.125C454.791 272.877 444.505 252.997 424.602 232.422C409.24 216.713 398.019 209.345 379.051 202.672C360.617 196.277 343.786 194.609 324.416 197.111ZM361.552 234.508C392.409 242.71 417.388 268.706 424.334 299.847C434.353 343.916 411.511 388.958 371.17 404.806C330.561 420.654 283.541 401.748 264.84 361.988C257.76 346.974 255.489 336.826 255.489 320.978C255.489 295.815 263.103 276.63 280.201 258.697C302.376 235.62 332.164 226.723 361.552 234.508Z" fill="#B9B9B9"/>
</svg>
