<svg width="683" height="683" viewBox="0 0 683 683" fill="none" xmlns="http://www.w3.org/2000/svg">
<g clip-path="url(#clip0_0_1)">
<path d="M476.667 2.53339C469.467 5.86672 226.667 249.2 219.067 260.667C202.533 285.467 194.667 311.333 194.667 341.333C194.667 373.2 204.267 402.533 222.533 426.667C226.267 431.467 284.267 490.4 351.6 557.6C482.667 688.4 476.267 682.667 489.467 682.667C497.067 682.667 507.733 676.533 512 669.733C516.8 662.267 517.867 655.6 515.867 647.2C514.4 640.933 509.867 636.267 392.667 518.667C325.733 451.6 269.067 393.733 266.8 390.267C256.4 374.933 251.733 359.467 251.733 341.333C251.733 323.2 256.4 307.867 266.667 292.4C269.067 288.933 325.6 231.333 392.267 164.533C505.333 51.3334 513.6 42.8 515.467 36.6667C518 28.1334 516.8 20.5334 511.867 12.6667C504.8 1.60002 488.667 -3.06661 476.667 2.53339Z" fill="white"/>
</g>
<defs>
<clipPath id="clip0_0_1">
<rect width="682.667" height="682.667" fill="white"/>
</clipPath>
</defs>
</svg>
