<svg width="24" height="24" viewBox="0 0 24 24" fill="none" xmlns="http://www.w3.org/2000/svg">
<path fill-rule="evenodd" clip-rule="evenodd" d="M4.97244 8.86265C4.97244 8.86265 5.1609 14.0367 5.30273 17.9404C5.4057 20.768 7.4389 23 9.91313 23C11.5451 23 13.455 23 15.087 23C17.5612 23 19.5944 20.768 19.6974 17.9404C19.8392 14.0367 20.0276 8.86265 20.0276 8.86265C20.0451 8.4036 19.7323 8.01457 19.3302 7.99567C18.929 7.97567 18.589 8.33357 18.5724 8.79374C18.5724 8.79374 18.384 13.9678 18.2412 17.8703C18.1712 19.8055 16.7792 21.3327 15.087 21.3327C13.455 21.3327 11.5451 21.3327 9.91313 21.3327C8.2209 21.3327 6.82884 19.8055 6.7589 17.8703C6.6161 13.9678 6.42764 8.79374 6.42764 8.79374C6.41113 8.33357 6.07113 7.97567 5.66993 7.99567C5.26775 8.01457 4.95495 8.4036 4.97244 8.86265Z" fill="white"/>
<path fill-rule="evenodd" clip-rule="evenodd" d="M8.08874 4.33453L8.45206 3.08964C8.81537 1.84141 9.83634 1 10.9865 1C11.9035 1 13.0965 1 14.0135 1C15.1637 1 16.1846 1.84141 16.5479 3.08964L16.9113 4.33453H20.2714C20.6736 4.33453 21 4.708 21 5.16817C21 5.62833 20.6736 6.0018 20.2714 6.0018H4.72857C4.3264 6.0018 4 5.62833 4 5.16817C4 4.708 4.3264 4.33453 4.72857 4.33453H8.08874ZM15.3745 4.33453L15.1656 3.61761C15.0005 3.04963 14.5371 2.66727 14.0135 2.66727C13.0965 2.66727 11.9035 2.66727 10.9865 2.66727C10.4629 2.66727 9.99954 3.04963 9.8344 3.61761L9.62554 4.33453H15.3745Z" fill="white"/>
<path d="M14 14.5V17C14 17.5523 14.4477 18 15 18V18V18C15.5523 18 16 17.5523 16 17V14.5V12C16 11.4477 15.5523 11 15 11V11V11C14.4477 11 14 11.4477 14 12V14.5Z" fill="white"/>
<path d="M9 14.5V16.8333C9 17.4777 9.44772 18 10 18C10.5523 18 11 17.4777 11 16.8333V14.5V12.1667C11 11.5223 10.5523 11 10 11C9.44772 11 9 11.5223 9 12.1667V14.5Z" fill="white"/>
</svg>
