<svg width="1600" height="1600" viewBox="0 0 1600 1600" fill="none" xmlns="http://www.w3.org/2000/svg">
<path d="M1210.53 307.067C1197.73 311.467 1188.13 317.867 1176.13 329.867L1165.33 340.667L1212.13 387.333L1258.8 434L1271.73 420.533C1279.47 412.533 1286.13 404.133 1288.4 399.733C1311.2 354.667 1280.27 303.867 1230.13 304C1222.53 304 1216.8 304.933 1210.53 307.067Z" fill="white"/>
<path d="M914.4 591.6C759.6 746.533 690.8 816.4 687.333 821.733C683.733 827.467 677.467 844.533 663.867 885.067C653.733 915.6 645.333 942.533 645.333 944.8C645.333 949.333 650.267 954.667 654.533 954.667C658.533 954.667 767.6 917.733 774.933 913.867C780.533 910.933 828.267 864 1006 686.4L1230 462.667L1183.33 416L1136.67 369.333L914.4 591.6Z" fill="white"/>
<path d="M322.104 481.394L322.096 481.396C318.192 482.81 315.359 484.339 312.926 486.6C310.5 488.856 308.502 491.812 306.227 496.029C305.503 497.368 305.001 498.609 304.63 505.653C304.258 512.704 304.017 525.649 303.867 550.464C303.567 600.099 303.633 697.268 303.767 889.867L304.267 889.867L303.767 889.867L304.167 1278.4L304.167 1278.55L304.254 1278.68L308.254 1284.55L308.261 1284.56L308.261 1284.56C310.703 1287.95 314.895 1291.61 318.439 1293.38L324.302 1296.44L324.411 1296.5H324.533H711.733C887.466 1296.5 984.368 1296.47 1037.85 1296.18C1064.59 1296.04 1080.49 1295.84 1089.96 1295.54C1094.69 1295.4 1097.82 1295.23 1099.91 1295.03C1101.97 1294.84 1103.07 1294.61 1103.68 1294.32C1103.68 1294.32 1103.68 1294.32 1103.68 1294.32L1103.47 1293.87C1108.8 1291.33 1114.13 1286.27 1117.07 1280.67L322.104 481.394ZM322.104 481.394C322.422 481.284 322.906 481.193 323.557 481.11C324.218 481.025 325.084 480.947 326.183 480.873C328.384 480.725 331.544 480.595 335.931 480.481C344.705 480.254 358.405 480.092 379.181 479.983C420.733 479.767 490.601 479.767 606 479.9L884.667 480.167L884.8 480.167L884.915 480.232L890.515 483.432L890.519 483.435C893.782 485.338 897.97 489.255 900.012 492.25M322.104 481.394L1117.51 1280.91C1117.82 1280.35 1118.06 1279.52 1118.27 1278.05C1118.48 1276.57 1118.67 1274.38 1118.83 1271.08C1119.15 1264.49 1119.37 1253.41 1119.55 1234.52C1119.9 1196.74 1120.03 1127.67 1120.23 1000.67C1120.37 924.734 1120.37 855.1 1120.28 804.082C1120.24 778.574 1120.18 757.719 1120.1 743.058C1120.06 735.727 1120.02 729.944 1119.98 725.902C1119.95 723.881 1119.93 722.294 1119.91 721.165C1119.88 720.058 1119.86 719.352 1119.83 719.132L1119.83 719.127C1119.21 714.966 1117.28 710.626 1114.59 706.875C1111.9 703.125 1108.45 699.93 1104.76 698.086L1104.75 698.084C1102.39 696.935 1100.41 696.249 1098.23 695.906C1096.06 695.564 1093.71 695.567 1090.63 695.768L1090.63 695.768C1085.37 696.173 1080.98 697.492 1077.31 699.916C1073.64 702.341 1070.72 705.849 1068.35 710.576L1068.35 710.58L1064.88 717.646L1064.83 717.751V717.867V980.267V1242.17L711.734 1241.9L358.499 1241.5L358.1 888.266L357.834 535.167H619.6H882H882.109L882.209 535.121L888.876 532.054L888.885 532.05C893.353 529.884 897.023 526.897 899.745 522.951L899.746 522.949C901.486 520.405 902.527 518.614 903.117 516.395C903.702 514.191 903.833 511.597 903.833 507.467C903.833 503.401 903.702 500.778 903.152 498.579C902.597 496.361 901.625 494.603 900.012 492.25M900.012 492.25L899.6 492.533M900.012 492.25C900.013 492.251 900.013 492.251 900.013 492.252L899.6 492.533M899.6 492.533C897.6 489.6 893.467 485.733 890.267 483.867L357.833 534.666L619.6 534.667H882L888.667 531.6C893.067 529.467 896.667 526.533 899.333 522.667C902.8 517.6 903.333 515.733 903.333 507.467C903.333 499.333 902.8 497.2 899.6 492.533ZM1068.8 710.8L1065.33 717.867V980.267L1065.33 1242.17L1068.8 710.8ZM1068.8 710.8C1073.47 701.467 1080.27 697.067 1090.67 696.267L1068.8 710.8Z" fill="white" stroke="black"/>
</svg>
