<svg width="683" height="683" viewBox="0 0 683 683" fill="none" xmlns="http://www.w3.org/2000/svg">
<g clip-path="url(#clip0_0_1)">
<path d="M234.823 2.53337C242.023 5.8667 484.823 249.2 492.423 260.667C508.956 285.467 516.823 311.333 516.823 341.333C516.823 373.2 507.223 402.533 488.956 426.667C485.223 431.467 427.223 490.4 359.89 557.6C228.823 688.4 235.223 682.667 222.023 682.667C214.423 682.667 203.756 676.533 199.49 669.733C194.69 662.267 193.623 655.6 195.623 647.2C197.09 640.933 201.623 636.267 318.823 518.667C385.756 451.6 442.423 393.733 444.69 390.267C455.09 374.933 459.756 359.467 459.756 341.333C459.756 323.2 455.09 307.867 444.823 292.4C442.423 288.933 385.89 231.333 319.223 164.533C206.156 51.3334 197.89 42.8 196.023 36.6667C193.49 28.1334 194.69 20.5334 199.623 12.6667C206.69 1.60004 222.823 -3.06663 234.823 2.53337Z" fill="#333333"/>
</g>
<defs>
<clipPath id="clip0_0_1">
<rect width="682.667" height="682.667" fill="white"/>
</clipPath>
</defs>
</svg>
