<svg width="683" height="683" viewBox="0 0 683 683" fill="none" xmlns="http://www.w3.org/2000/svg">
<g clip-path="url(#clip0_0_1)">
<rect x="42" y="41" width="598" height="601" rx="299" fill="#333333"/>
<path d="M309.467 1.46674C245.333 7.20008 178.533 34.4001 127.2 75.6001C58.8 130.8 15.3333 208.667 2.40002 299.333C-0.266651 318 0.133349 366.533 3.20002 387.333C8.40002 424.4 19.3334 459.467 36.1334 493.2C80.2667 582.133 160.267 646.8 257.067 671.867C324.933 689.467 399.333 684.933 465.067 659.333C511.6 641.067 550.267 615.333 586 578.533C613.333 550.533 631.333 524.667 648 490.133C663.867 457.333 673.333 426.933 678.933 391.333C683.067 364.667 683.067 318 678.933 291.333C673.2 254.933 663.733 224.667 647.333 191.333C630.933 157.867 612.4 131.6 586.133 104.4C558.267 75.4667 530.133 54.8001 494 36.5334C436.533 7.60008 374.267 -4.26659 309.467 1.46674ZM377.333 59.2001C442.8 68.0001 501.6 97.7334 546.667 144.8C586.533 186.533 611.2 235.733 622 295.333C625.467 314.267 626.133 354.267 623.467 375.733C610.133 479.733 543.2 566.667 446.533 605.333C409.6 620 374.133 626.133 332.667 624.933C299.333 624 273.733 619.2 244.667 608.667C152.8 575.467 84.5334 497.2 63.4667 401.333C58.2667 377.6 56.9334 361.2 57.7334 332.8C58.4 306.533 60.1334 293.333 66 270.533C94.9334 157.6 190.8 73.4667 307.333 58.8001C322.4 56.9334 362 57.2001 377.333 59.2001Z" fill="#333333"/>
<path d="M333.741 191.823C324.862 194.779 318.237 199.845 314.432 206.742C312.318 210.401 311.895 218.001 311.331 260.926L310.626 310.889L260.591 311.592C217.603 312.155 209.992 312.577 206.328 314.689C185.891 325.948 185.891 356.347 206.328 367.606C209.992 369.718 217.603 370.14 260.591 370.703L310.626 371.406L311.331 421.369C312.036 475.272 312.177 475.694 320.07 482.731C334.023 495.398 354.742 493.287 365.594 477.946L369.823 471.753L370.528 421.65L371.232 371.406L421.549 370.703L471.725 369.999L477.927 365.777C493.29 354.94 495.404 334.251 482.719 320.318C475.672 312.437 475.249 312.296 421.267 311.592L371.232 310.889L370.528 260.926C369.823 207.023 369.682 206.601 361.789 199.564C354.46 192.808 341.634 189.29 333.741 191.823Z" fill="#888888"/>
</g>
<defs>
<clipPath id="clip0_0_1">
<rect width="682.667" height="682.667" fill="white"/>
</clipPath>
</defs>
</svg>
