<svg width="683" height="683" viewBox="0 0 683 683" fill="none" xmlns="http://www.w3.org/2000/svg">
<path d="M566 44.5333C547.733 49.7333 82.2666 212.8 75.6 216.267C66.6666 221.067 54.6666 233.333 50 242.8C34.2666 273.867 45.7333 311.333 75.3333 325.2C79.7333 327.333 127.067 344.133 180.667 362.8C250.4 387.067 279.067 397.6 281.733 400C284.933 402.8 290.933 419.067 320.8 504.667C340.267 560.4 357.6 608.4 359.333 611.467C363.733 618.933 373.333 628.133 381.067 632.4C412.133 649.2 452.267 635.867 467.867 603.6C472.667 593.733 636.667 123.067 638.8 113.067C644.667 85.8666 628.267 56.8 601.2 46.5333C591.867 42.9333 575.067 42 566 44.5333ZM428.667 224C343.067 309.6 294.667 357.2 293.333 356.8C292.267 356.533 254.133 343.2 208.667 327.333C163.2 311.467 118.933 296 110.133 293.067C91.2 286.533 86.6666 283.2 85.7333 274.667C85.0666 267.067 89.4666 257.733 95.4666 254.4C97.7333 253.067 193.467 219.2 308.133 179.2C422.8 139.2 526.533 102.933 538.667 98.6666C550.8 94.4 560.933 90.8 561.333 90.8C561.733 90.6667 502 150.667 428.667 224ZM589.467 128.267C479.867 443.2 429.867 585.467 427.333 588.8C420.4 597.867 406 600 399.067 592.933C396.533 590.533 388.267 568.4 366.533 505.867C350.533 459.733 334.533 414.267 331.2 404.8L325.067 387.6L458.267 254.4C531.467 181.2 591.467 121.333 591.6 121.333C591.733 121.333 590.8 124.533 589.467 128.267Z" fill="white"/>
</svg>
